<svg xmlns="http://www.w3.org/2000/svg" xmlns:xlink="http://www.w3.org/1999/xlink" width="500" zoomAndPan="magnify" viewBox="0 0 375 93.749996" height="125" preserveAspectRatio="xMidYMid meet" version="1.0"><defs><g/><clipPath id="d249c0da7a"><rect x="0" width="361" y="0" height="58"/></clipPath></defs><g transform="matrix(1, 0, 0, 1, 7, 17)"><g clip-path="url(#d249c0da7a)"><g fill="#f1f1f1" fill-opacity="1"><g transform="translate(1.6189, 40.640236)"><g><path d="M 1.15625 0 L 1.15625 -0.46875 L 2.921875 -0.46875 C 3.179688 -0.46875 3.457031 -0.523438 3.75 -0.640625 C 4.039062 -0.753906 4.300781 -0.988281 4.53125 -1.34375 C 4.769531 -1.707031 4.890625 -2.234375 4.890625 -2.921875 L 4.890625 -35.546875 C 4.890625 -36.265625 4.769531 -36.796875 4.53125 -37.140625 C 4.300781 -37.484375 4.039062 -37.710938 3.75 -37.828125 C 3.457031 -37.941406 3.179688 -38 2.921875 -38 L 1.15625 -38 L 1.15625 -38.46875 L 14.421875 -38.46875 C 15.578125 -38.46875 16.753906 -38.285156 17.953125 -37.921875 C 19.160156 -37.566406 20.265625 -37.003906 21.265625 -36.234375 C 22.273438 -35.460938 23.085938 -34.46875 23.703125 -33.25 C 24.316406 -32.03125 24.625 -30.566406 24.625 -28.859375 C 24.625 -27.390625 24.332031 -26.070312 23.75 -24.90625 C 23.175781 -23.738281 22.414062 -22.738281 21.46875 -21.90625 C 20.519531 -21.070312 19.472656 -20.429688 18.328125 -19.984375 C 17.191406 -19.535156 16.054688 -19.285156 14.921875 -19.234375 C 16.203125 -17.160156 17.347656 -15.273438 18.359375 -13.578125 C 19.378906 -11.890625 20.390625 -10.226562 21.390625 -8.59375 C 22.390625 -6.96875 23.503906 -5.207031 24.734375 -3.3125 C 25.328125 -2.382812 26.023438 -1.675781 26.828125 -1.1875 C 27.640625 -0.707031 28.671875 -0.46875 29.921875 -0.46875 L 29.921875 0 C 29.566406 0 29.097656 0 28.515625 0 C 27.941406 0 27.363281 0 26.78125 0 C 26.207031 0 25.726562 0 25.34375 0 C 24.914062 0 24.535156 -0.0625 24.203125 -0.1875 C 23.867188 -0.320312 23.519531 -0.65625 23.15625 -1.1875 C 22.082031 -2.9375 21.109375 -4.507812 20.234375 -5.90625 C 19.359375 -7.300781 18.523438 -8.664062 17.734375 -10 C 16.941406 -11.332031 16.101562 -12.734375 15.21875 -14.203125 C 14.332031 -15.679688 13.3125 -17.359375 12.15625 -19.234375 L 7.6875 -19.234375 L 7.6875 -2.921875 C 7.6875 -2.234375 7.800781 -1.707031 8.03125 -1.34375 C 8.269531 -0.988281 8.539062 -0.753906 8.84375 -0.640625 C 9.15625 -0.523438 9.425781 -0.46875 9.65625 -0.46875 L 11.421875 -0.46875 L 11.421875 0 Z M 7.6875 -38.046875 L 7.6875 -19.703125 L 12.421875 -19.703125 C 14.578125 -19.703125 16.335938 -20.109375 17.703125 -20.921875 C 19.078125 -21.742188 20.09375 -22.847656 20.75 -24.234375 C 21.40625 -25.617188 21.734375 -27.160156 21.734375 -28.859375 C 21.734375 -29.929688 21.550781 -31.007812 21.1875 -32.09375 C 20.832031 -33.1875 20.273438 -34.179688 19.515625 -35.078125 C 18.765625 -35.984375 17.804688 -36.707031 16.640625 -37.25 C 15.472656 -37.800781 14.09375 -38.078125 12.5 -38.078125 C 11.8125 -38.078125 11.265625 -38.078125 10.859375 -38.078125 C 10.460938 -38.078125 10.125 -38.078125 9.84375 -38.078125 C 9.5625 -38.078125 9.265625 -38.070312 8.953125 -38.0625 C 8.648438 -38.050781 8.226562 -38.046875 7.6875 -38.046875 Z M 7.6875 -38.046875 "/></g></g></g><g fill="#f1f1f1" fill-opacity="1"><g transform="translate(32.70001, 40.640236)"><g><path d="M 12.46875 0.765625 C 10.332031 0.765625 8.476562 0.316406 6.90625 -0.578125 C 5.332031 -1.472656 4.109375 -2.679688 3.234375 -4.203125 C 2.359375 -5.734375 1.921875 -7.410156 1.921875 -9.234375 C 1.921875 -10.691406 2.203125 -12.054688 2.765625 -13.328125 C 3.328125 -14.597656 4.128906 -15.703125 5.171875 -16.640625 C 6.210938 -17.578125 7.453125 -18.265625 8.890625 -18.703125 C 8.421875 -19.128906 7.929688 -19.539062 7.421875 -19.9375 C 6.910156 -20.34375 6.375 -20.710938 5.8125 -21.046875 C 6.707031 -21.941406 7.753906 -22.59375 8.953125 -23 C 10.160156 -23.414062 11.507812 -23.625 13 -23.625 C 15.332031 -23.625 17.253906 -23.195312 18.765625 -22.34375 C 20.285156 -21.5 21.421875 -20.335938 22.171875 -18.859375 C 22.929688 -17.390625 23.3125 -15.734375 23.3125 -13.890625 L 23.3125 -4 C 23.3125 -2.769531 23.488281 -1.875 23.84375 -1.3125 C 24.207031 -0.75 24.925781 -0.46875 26 -0.46875 L 26 0 L 23.046875 0 C 22.117188 0 21.492188 -0.3125 21.171875 -0.9375 C 20.859375 -1.570312 20.703125 -2.234375 20.703125 -2.921875 L 20.703125 -3.078125 C 19.828125 -1.972656 18.6875 -1.054688 17.28125 -0.328125 C 15.882812 0.398438 14.28125 0.765625 12.46875 0.765625 Z M 9.46875 -18.125 C 7.851562 -17.457031 6.582031 -16.300781 5.65625 -14.65625 C 4.726562 -13.007812 4.265625 -11.160156 4.265625 -9.109375 C 4.265625 -7.367188 4.601562 -5.785156 5.28125 -4.359375 C 5.96875 -2.941406 6.925781 -1.804688 8.15625 -0.953125 C 9.382812 -0.109375 10.832031 0.3125 12.5 0.3125 C 14.0625 0.3125 15.597656 -0.0507812 17.109375 -0.78125 C 18.628906 -1.519531 19.828125 -2.554688 20.703125 -3.890625 L 20.703125 -14.96875 C 20.316406 -15.53125 19.78125 -16.097656 19.09375 -16.671875 C 18.414062 -17.253906 17.535156 -17.738281 16.453125 -18.125 C 15.378906 -18.507812 14.0625 -18.703125 12.5 -18.703125 C 11.53125 -18.703125 10.617188 -18.546875 9.765625 -18.234375 C 10.378906 -17.617188 11.023438 -16.878906 11.703125 -16.015625 C 12.390625 -15.160156 12.960938 -14.175781 13.421875 -13.0625 C 13.890625 -11.945312 14.125 -10.671875 14.125 -9.234375 C 14.125 -7.867188 13.835938 -6.769531 13.265625 -5.9375 C 12.703125 -5.101562 11.960938 -4.6875 11.046875 -4.6875 C 10.890625 -4.6875 10.769531 -4.726562 10.6875 -4.8125 C 10.925781 -4.863281 11.234375 -5.066406 11.609375 -5.421875 C 11.992188 -5.785156 12.347656 -6.289062 12.671875 -6.9375 C 12.992188 -7.59375 13.15625 -8.382812 13.15625 -9.3125 C 13.15625 -11.050781 12.820312 -12.65625 12.15625 -14.125 C 11.488281 -15.601562 10.59375 -16.9375 9.46875 -18.125 Z M 13.078125 -23.15625 C 11.441406 -23.15625 10.242188 -22.910156 9.484375 -22.421875 C 8.722656 -21.941406 8.34375 -21.351562 8.34375 -20.65625 C 8.34375 -20.425781 8.382812 -20.160156 8.46875 -19.859375 C 8.5625 -19.566406 8.800781 -19.21875 9.1875 -18.8125 C 9.707031 -18.9375 10.242188 -19.035156 10.796875 -19.109375 C 11.347656 -19.191406 11.90625 -19.234375 12.46875 -19.234375 C 14.257812 -19.234375 15.835938 -18.929688 17.203125 -18.328125 C 18.578125 -17.722656 19.71875 -16.894531 20.625 -15.84375 C 20.625 -17.082031 20.328125 -18.257812 19.734375 -19.375 C 19.140625 -20.488281 18.285156 -21.394531 17.171875 -22.09375 C 16.054688 -22.800781 14.691406 -23.15625 13.078125 -23.15625 Z M 13.078125 -23.15625 "/></g></g></g><g fill="#f1f1f1" fill-opacity="1"><g transform="translate(59.088181, 40.640236)"><g><path d="M 0.765625 -0.46875 L 2.53125 -0.46875 C 2.789062 -0.46875 3.066406 -0.523438 3.359375 -0.640625 C 3.660156 -0.753906 3.925781 -0.988281 4.15625 -1.34375 C 4.382812 -1.707031 4.5 -2.234375 4.5 -2.921875 L 4.5 -22.390625 L 1.03125 -22.390625 L 1.03125 -22.84375 L 4.5 -22.84375 L 4.5 -29.96875 C 4.5 -30.914062 4.613281 -31.925781 4.84375 -33 C 5.070312 -34.082031 5.472656 -35.09375 6.046875 -36.03125 C 6.628906 -36.96875 7.441406 -37.734375 8.484375 -38.328125 C 9.523438 -38.929688 10.851562 -39.234375 12.46875 -39.234375 C 13.71875 -39.234375 14.738281 -39.066406 15.53125 -38.734375 C 16.332031 -38.398438 16.984375 -38.0625 17.484375 -37.71875 C 17.984375 -37.375 18.390625 -37.203125 18.703125 -37.203125 C 18.984375 -37.203125 19.222656 -37.34375 19.421875 -37.625 C 19.628906 -37.90625 19.875 -38.441406 20.15625 -39.234375 L 20.65625 -39.234375 L 15.734375 -25.546875 L 15.265625 -25.546875 L 16.421875 -28.859375 C 17.171875 -31.003906 17.472656 -32.820312 17.328125 -34.3125 C 17.191406 -35.800781 16.695312 -36.929688 15.84375 -37.703125 C 15 -38.472656 13.875 -38.859375 12.46875 -38.859375 C 11 -38.859375 9.785156 -38.585938 8.828125 -38.046875 C 7.867188 -37.503906 7.148438 -36.816406 6.671875 -35.984375 C 6.203125 -35.148438 5.96875 -34.3125 5.96875 -33.46875 C 5.96875 -32.957031 6.023438 -32.5 6.140625 -32.09375 C 6.253906 -31.695312 6.382812 -31.242188 6.53125 -30.734375 C 6.6875 -30.222656 6.820312 -29.5625 6.9375 -28.75 C 7.050781 -27.945312 7.109375 -26.890625 7.109375 -25.578125 L 7.109375 -22.84375 L 10.578125 -22.84375 L 10.578125 -22.390625 L 7.109375 -22.390625 L 7.109375 -2.921875 C 7.109375 -2.234375 7.222656 -1.707031 7.453125 -1.34375 C 7.691406 -0.988281 7.960938 -0.753906 8.265625 -0.640625 C 8.578125 -0.523438 8.847656 -0.46875 9.078125 -0.46875 L 10.84375 -0.46875 L 10.84375 0 L 0.765625 0 Z M 0.765625 -0.46875 "/></g></g></g><g fill="#f1f1f1" fill-opacity="1"><g transform="translate(79.744812, 40.640236)"><g><path d="M 12.46875 0.765625 C 10.332031 0.765625 8.476562 0.316406 6.90625 -0.578125 C 5.332031 -1.472656 4.109375 -2.679688 3.234375 -4.203125 C 2.359375 -5.734375 1.921875 -7.410156 1.921875 -9.234375 C 1.921875 -10.691406 2.203125 -12.054688 2.765625 -13.328125 C 3.328125 -14.597656 4.128906 -15.703125 5.171875 -16.640625 C 6.210938 -17.578125 7.453125 -18.265625 8.890625 -18.703125 C 8.421875 -19.128906 7.929688 -19.539062 7.421875 -19.9375 C 6.910156 -20.34375 6.375 -20.710938 5.8125 -21.046875 C 6.707031 -21.941406 7.753906 -22.59375 8.953125 -23 C 10.160156 -23.414062 11.507812 -23.625 13 -23.625 C 15.332031 -23.625 17.253906 -23.195312 18.765625 -22.34375 C 20.285156 -21.5 21.421875 -20.335938 22.171875 -18.859375 C 22.929688 -17.390625 23.3125 -15.734375 23.3125 -13.890625 L 23.3125 -4 C 23.3125 -2.769531 23.488281 -1.875 23.84375 -1.3125 C 24.207031 -0.75 24.925781 -0.46875 26 -0.46875 L 26 0 L 23.046875 0 C 22.117188 0 21.492188 -0.3125 21.171875 -0.9375 C 20.859375 -1.570312 20.703125 -2.234375 20.703125 -2.921875 L 20.703125 -3.078125 C 19.828125 -1.972656 18.6875 -1.054688 17.28125 -0.328125 C 15.882812 0.398438 14.28125 0.765625 12.46875 0.765625 Z M 9.46875 -18.125 C 7.851562 -17.457031 6.582031 -16.300781 5.65625 -14.65625 C 4.726562 -13.007812 4.265625 -11.160156 4.265625 -9.109375 C 4.265625 -7.367188 4.601562 -5.785156 5.28125 -4.359375 C 5.96875 -2.941406 6.925781 -1.804688 8.15625 -0.953125 C 9.382812 -0.109375 10.832031 0.3125 12.5 0.3125 C 14.0625 0.3125 15.597656 -0.0507812 17.109375 -0.78125 C 18.628906 -1.519531 19.828125 -2.554688 20.703125 -3.890625 L 20.703125 -14.96875 C 20.316406 -15.53125 19.78125 -16.097656 19.09375 -16.671875 C 18.414062 -17.253906 17.535156 -17.738281 16.453125 -18.125 C 15.378906 -18.507812 14.0625 -18.703125 12.5 -18.703125 C 11.53125 -18.703125 10.617188 -18.546875 9.765625 -18.234375 C 10.378906 -17.617188 11.023438 -16.878906 11.703125 -16.015625 C 12.390625 -15.160156 12.960938 -14.175781 13.421875 -13.0625 C 13.890625 -11.945312 14.125 -10.671875 14.125 -9.234375 C 14.125 -7.867188 13.835938 -6.769531 13.265625 -5.9375 C 12.703125 -5.101562 11.960938 -4.6875 11.046875 -4.6875 C 10.890625 -4.6875 10.769531 -4.726562 10.6875 -4.8125 C 10.925781 -4.863281 11.234375 -5.066406 11.609375 -5.421875 C 11.992188 -5.785156 12.347656 -6.289062 12.671875 -6.9375 C 12.992188 -7.59375 13.15625 -8.382812 13.15625 -9.3125 C 13.15625 -11.050781 12.820312 -12.65625 12.15625 -14.125 C 11.488281 -15.601562 10.59375 -16.9375 9.46875 -18.125 Z M 13.078125 -23.15625 C 11.441406 -23.15625 10.242188 -22.910156 9.484375 -22.421875 C 8.722656 -21.941406 8.34375 -21.351562 8.34375 -20.65625 C 8.34375 -20.425781 8.382812 -20.160156 8.46875 -19.859375 C 8.5625 -19.566406 8.800781 -19.21875 9.1875 -18.8125 C 9.707031 -18.9375 10.242188 -19.035156 10.796875 -19.109375 C 11.347656 -19.191406 11.90625 -19.234375 12.46875 -19.234375 C 14.257812 -19.234375 15.835938 -18.929688 17.203125 -18.328125 C 18.578125 -17.722656 19.71875 -16.894531 20.625 -15.84375 C 20.625 -17.082031 20.328125 -18.257812 19.734375 -19.375 C 19.140625 -20.488281 18.285156 -21.394531 17.171875 -22.09375 C 16.054688 -22.800781 14.691406 -23.15625 13.078125 -23.15625 Z M 13.078125 -23.15625 "/></g></g></g><g fill="#f1f1f1" fill-opacity="1"><g transform="translate(106.132983, 40.640236)"><g><path d="M 14.125 0.765625 C 11.6875 0.765625 9.550781 0.257812 7.71875 -0.75 C 5.882812 -1.757812 4.457031 -3.179688 3.4375 -5.015625 C 2.425781 -6.847656 1.921875 -8.984375 1.921875 -11.421875 C 1.921875 -13.859375 2.425781 -15.992188 3.4375 -17.828125 C 4.457031 -19.660156 5.882812 -21.082031 7.71875 -22.09375 C 9.550781 -23.113281 11.6875 -23.625 14.125 -23.625 C 16.09375 -23.625 17.71875 -23.332031 19 -22.75 C 20.28125 -22.175781 21.289062 -21.460938 22.03125 -20.609375 C 22.78125 -19.765625 23.328125 -18.921875 23.671875 -18.078125 C 24.023438 -17.234375 24.25 -16.519531 24.34375 -15.9375 C 24.445312 -15.363281 24.5 -15.078125 24.5 -15.078125 L 4.046875 -15.078125 C 3.992188 -14.742188 3.945312 -14.414062 3.90625 -14.09375 C 3.863281 -13.78125 3.84375 -13.441406 3.84375 -13.078125 C 3.84375 -10.847656 4.335938 -8.828125 5.328125 -7.015625 C 6.316406 -5.210938 7.710938 -3.769531 9.515625 -2.6875 C 11.328125 -1.613281 13.453125 -1.078125 15.890625 -1.078125 C 17.859375 -1.078125 19.585938 -1.5 21.078125 -2.34375 C 22.566406 -3.1875 23.734375 -4.382812 24.578125 -5.9375 C 25.421875 -7.488281 25.84375 -9.316406 25.84375 -11.421875 L 26.3125 -11.421875 C 26.3125 -8.984375 25.804688 -6.847656 24.796875 -5.015625 C 23.785156 -3.179688 22.359375 -1.757812 20.515625 -0.75 C 18.679688 0.257812 16.550781 0.765625 14.125 0.765625 Z M 4.109375 -15.546875 L 21.890625 -15.546875 C 21.859375 -17.023438 21.4375 -18.335938 20.625 -19.484375 C 19.820312 -20.628906 18.785156 -21.523438 17.515625 -22.171875 C 16.253906 -22.828125 14.90625 -23.15625 13.46875 -23.15625 C 11.945312 -23.15625 10.539062 -22.820312 9.25 -22.15625 C 7.957031 -21.488281 6.867188 -20.582031 5.984375 -19.4375 C 5.097656 -18.300781 4.472656 -17.003906 4.109375 -15.546875 Z M 4.109375 -15.546875 "/></g></g></g><g fill="#f1f1f1" fill-opacity="1"><g transform="translate(132.059553, 40.640236)"><g><path d="M 0.765625 -0.46875 L 2.53125 -0.46875 C 2.789062 -0.46875 3.066406 -0.523438 3.359375 -0.640625 C 3.660156 -0.753906 3.925781 -0.988281 4.15625 -1.34375 C 4.382812 -1.707031 4.5 -2.234375 4.5 -2.921875 L 4.5 -33.890625 C 4.5 -34.171875 4.472656 -34.484375 4.421875 -34.828125 C 4.367188 -35.179688 4.207031 -35.484375 3.9375 -35.734375 C 3.675781 -35.992188 3.207031 -36.125 2.53125 -36.125 L 2.53125 -36.578125 C 3.894531 -36.578125 4.921875 -36.878906 5.609375 -37.484375 C 6.304688 -38.085938 6.65625 -38.671875 6.65625 -39.234375 L 7.109375 -39.234375 L 7.109375 -2.921875 C 7.109375 -2.234375 7.222656 -1.707031 7.453125 -1.34375 C 7.691406 -0.988281 7.960938 -0.753906 8.265625 -0.640625 C 8.578125 -0.523438 8.847656 -0.46875 9.078125 -0.46875 L 10.84375 -0.46875 L 10.84375 0 L 0.765625 0 Z M 0.765625 -0.46875 "/></g></g></g><g fill="#f1f1f1" fill-opacity="1"><g transform="translate(143.291833, 40.640236)"><g/></g></g><g fill="#f1f1f1" fill-opacity="1"><g transform="translate(156.793654, 40.640236)"><g><path d="M 19.421875 0.765625 C 17.316406 0.765625 15.25 0.535156 13.21875 0.078125 C 11.195312 -0.378906 9.363281 -1.082031 7.71875 -2.03125 C 6.082031 -2.988281 4.769531 -4.21875 3.78125 -5.71875 C 2.800781 -7.21875 2.3125 -9.003906 2.3125 -11.078125 C 2.3125 -12.972656 2.679688 -14.585938 3.421875 -15.921875 C 4.171875 -17.253906 5.242188 -18.414062 6.640625 -19.40625 C 8.035156 -20.394531 9.695312 -21.300781 11.625 -22.125 C 10.382812 -23.507812 9.394531 -24.878906 8.65625 -26.234375 C 7.914062 -27.597656 7.546875 -28.945312 7.546875 -30.28125 C 7.546875 -32.070312 8.023438 -33.609375 8.984375 -34.890625 C 9.941406 -36.171875 11.226562 -37.15625 12.84375 -37.84375 C 14.457031 -38.539062 16.21875 -38.890625 18.125 -38.890625 C 19.789062 -38.890625 21.234375 -38.65625 22.453125 -38.1875 C 23.671875 -37.726562 24.675781 -37.132812 25.46875 -36.40625 C 26.257812 -35.675781 26.851562 -34.878906 27.25 -34.015625 C 27.644531 -33.160156 27.84375 -32.347656 27.84375 -31.578125 C 27.84375 -30.191406 27.554688 -29.023438 26.984375 -28.078125 C 26.410156 -27.128906 25.671875 -26.347656 24.765625 -25.734375 C 23.867188 -25.117188 22.914062 -24.628906 21.90625 -24.265625 C 20.894531 -23.910156 19.941406 -23.628906 19.046875 -23.421875 C 18.148438 -23.222656 17.429688 -23.054688 16.890625 -22.921875 C 16.554688 -22.898438 16.210938 -22.859375 15.859375 -22.796875 C 15.515625 -22.734375 15.164062 -22.648438 14.8125 -22.546875 C 15.78125 -21.597656 16.925781 -20.523438 18.25 -19.328125 C 19.570312 -18.140625 21.054688 -16.828125 22.703125 -15.390625 L 34.46875 -29.46875 L 34.8125 -29.203125 L 26.890625 -19.703125 C 27.328125 -19.898438 27.820312 -20.066406 28.375 -20.203125 C 28.925781 -20.347656 29.597656 -20.421875 30.390625 -20.421875 C 31.796875 -20.421875 33.09375 -20.109375 34.28125 -19.484375 C 35.476562 -18.859375 36.441406 -17.96875 37.171875 -16.8125 C 37.910156 -15.65625 38.28125 -14.269531 38.28125 -12.65625 C 38.28125 -11.21875 37.945312 -9.84375 37.28125 -8.53125 C 36.613281 -7.226562 35.710938 -6.015625 34.578125 -4.890625 C 35.859375 -3.785156 36.992188 -2.804688 37.984375 -1.953125 C 38.972656 -1.109375 39.773438 -0.507812 40.390625 -0.15625 C 40.898438 0.15625 41.410156 0.3125 41.921875 0.3125 C 42.441406 0.3125 42.945312 0.3125 43.4375 0.3125 L 43.4375 0.765625 C 41.96875 0.765625 40.800781 0.765625 39.9375 0.765625 C 39.082031 0.765625 38.367188 0.679688 37.796875 0.515625 C 37.222656 0.347656 36.613281 0.0078125 35.96875 -0.5 C 35.507812 -0.851562 35.003906 -1.269531 34.453125 -1.75 C 33.898438 -2.226562 33.289062 -2.75 32.625 -3.3125 C 30.875 -2.050781 28.851562 -1.054688 26.5625 -0.328125 C 24.269531 0.398438 21.890625 0.765625 19.421875 0.765625 Z M 5.15625 -11.6875 C 5.15625 -10 5.554688 -8.4375 6.359375 -7 C 7.171875 -5.5625 8.257812 -4.300781 9.625 -3.21875 C 11 -2.144531 12.550781 -1.3125 14.28125 -0.71875 C 16.019531 -0.132812 17.800781 0.15625 19.625 0.15625 C 21.976562 0.15625 24.25 -0.179688 26.4375 -0.859375 C 28.632812 -1.546875 30.582031 -2.476562 32.28125 -3.65625 C 30.914062 -4.832031 29.410156 -6.140625 27.765625 -7.578125 C 26.128906 -9.015625 24.441406 -10.476562 22.703125 -11.96875 C 20.796875 -13.601562 18.910156 -15.21875 17.046875 -16.8125 C 15.191406 -18.40625 13.550781 -19.984375 12.125 -21.546875 C 10.863281 -20.984375 9.707031 -20.234375 8.65625 -19.296875 C 7.601562 -18.359375 6.753906 -17.253906 6.109375 -15.984375 C 5.472656 -14.710938 5.15625 -13.28125 5.15625 -11.6875 Z M 9.234375 -31.65625 C 9.203125 -30.832031 9.347656 -30 9.671875 -29.15625 C 9.992188 -28.3125 10.546875 -27.378906 11.328125 -26.359375 C 12.109375 -25.347656 13.164062 -24.175781 14.5 -22.84375 C 15.144531 -22.945312 15.921875 -23.101562 16.828125 -23.3125 C 17.742188 -23.519531 18.675781 -23.820312 19.625 -24.21875 C 20.570312 -24.613281 21.453125 -25.125 22.265625 -25.75 C 23.085938 -26.382812 23.753906 -27.148438 24.265625 -28.046875 C 24.785156 -28.941406 25.046875 -30.003906 25.046875 -31.234375 C 25.046875 -31.953125 24.921875 -32.710938 24.671875 -33.515625 C 24.429688 -34.328125 24.039062 -35.097656 23.5 -35.828125 C 22.96875 -36.566406 22.25 -37.164062 21.34375 -37.625 C 20.445312 -38.082031 19.347656 -38.3125 18.046875 -38.3125 C 16.046875 -38.3125 14.394531 -37.984375 13.09375 -37.328125 C 11.800781 -36.679688 10.847656 -35.847656 10.234375 -34.828125 C 9.617188 -33.816406 9.285156 -32.757812 9.234375 -31.65625 Z M 23.046875 -15.078125 C 23.378906 -14.796875 23.722656 -14.5 24.078125 -14.1875 C 24.441406 -13.882812 24.800781 -13.566406 25.15625 -13.234375 C 26.820312 -11.828125 28.414062 -10.429688 29.9375 -9.046875 C 31.46875 -7.660156 32.898438 -6.390625 34.234375 -5.234375 C 35.335938 -6.285156 36.203125 -7.425781 36.828125 -8.65625 C 37.460938 -9.882812 37.78125 -11.164062 37.78125 -12.5 C 37.78125 -14.21875 37.398438 -15.628906 36.640625 -16.734375 C 35.878906 -17.835938 34.9375 -18.648438 33.8125 -19.171875 C 32.6875 -19.703125 31.535156 -19.96875 30.359375 -19.96875 C 29.203125 -19.96875 28.234375 -19.804688 27.453125 -19.484375 C 26.671875 -19.160156 26.0625 -18.742188 25.625 -18.234375 Z M 23.046875 -15.078125 "/></g></g></g><g fill="#f1f1f1" fill-opacity="1"><g transform="translate(202.530585, 40.640236)"><g/></g></g><g fill="#f1f1f1" fill-opacity="1"><g transform="translate(216.032405, 40.640236)"><g><path d="M 1.5 0.8125 L 1.15625 0.8125 L 1.15625 -19.203125 L 1.65625 -19.203125 L 1.65625 -10.234375 C 1.65625 -7.953125 1.992188 -6.019531 2.671875 -4.4375 C 3.347656 -2.863281 4.289062 -1.671875 5.5 -0.859375 C 6.707031 -0.0546875 8.066406 0.34375 9.578125 0.34375 C 11.117188 0.34375 12.351562 -0.0976562 13.28125 -0.984375 C 14.21875 -1.867188 14.898438 -3.035156 15.328125 -4.484375 C 15.753906 -5.929688 15.96875 -7.5 15.96875 -9.1875 L 15.96875 -35.5 C 15.96875 -36.21875 15.847656 -36.75 15.609375 -37.09375 C 15.378906 -37.445312 15.117188 -37.679688 14.828125 -37.796875 C 14.535156 -37.910156 14.257812 -37.96875 14 -37.96875 L 12.234375 -37.96875 L 12.234375 -38.4375 L 22.5 -38.4375 L 22.5 -37.96875 L 20.734375 -37.96875 C 20.503906 -37.96875 20.234375 -37.910156 19.921875 -37.796875 C 19.617188 -37.679688 19.347656 -37.445312 19.109375 -37.09375 C 18.878906 -36.75 18.765625 -36.21875 18.765625 -35.5 L 18.765625 -12.34375 C 18.765625 -9.8125 18.492188 -7.554688 17.953125 -5.578125 C 17.421875 -3.597656 16.492188 -2.035156 15.171875 -0.890625 C 13.847656 0.242188 12.007812 0.8125 9.65625 0.8125 C 8.550781 0.8125 7.585938 0.648438 6.765625 0.328125 C 5.953125 0.00390625 5.242188 -0.3125 4.640625 -0.625 C 4.035156 -0.945312 3.476562 -1.109375 2.96875 -1.109375 C 2.5 -1.109375 2.132812 -0.914062 1.875 -0.53125 C 1.625 -0.15625 1.5 0.289062 1.5 0.8125 Z M 1.5 0.8125 "/></g></g></g><g fill="#f1f1f1" fill-opacity="1"><g transform="translate(238.920106, 40.640236)"><g><path d="M 2.3125 -20.546875 L 2.3125 -21 C 3.664062 -21 4.6875 -21.300781 5.375 -21.90625 C 6.070312 -22.507812 6.421875 -23.09375 6.421875 -23.65625 L 6.890625 -23.65625 L 6.890625 -3.34375 C 6.890625 -2.394531 7.054688 -1.554688 7.390625 -0.828125 C 7.722656 -0.0976562 8.320312 0.265625 9.1875 0.265625 C 10.269531 0.265625 11.21875 -0.0390625 12.03125 -0.65625 C 12.851562 -1.269531 13.546875 -2.035156 14.109375 -2.953125 C 14.679688 -3.878906 15.117188 -4.800781 15.421875 -5.71875 C 15.734375 -6.644531 15.898438 -7.40625 15.921875 -8 L 15.921875 -18.3125 C 15.921875 -18.59375 15.894531 -18.90625 15.84375 -19.25 C 15.789062 -19.59375 15.628906 -19.894531 15.359375 -20.15625 C 15.097656 -20.414062 14.632812 -20.546875 13.96875 -20.546875 L 13.96875 -21 C 15.320312 -21 16.34375 -21.300781 17.03125 -21.90625 C 17.726562 -22.507812 18.078125 -23.09375 18.078125 -23.65625 L 18.546875 -23.65625 L 18.546875 -4.546875 C 18.546875 -3.492188 18.660156 -2.816406 18.890625 -2.515625 C 19.117188 -2.222656 19.410156 -2.078125 19.765625 -2.078125 L 20.84375 -2.078125 L 20.84375 -1.609375 C 20.488281 -1.609375 20.046875 -1.582031 19.515625 -1.53125 C 18.992188 -1.488281 18.457031 -1.300781 17.90625 -0.96875 C 17.351562 -0.632812 16.847656 -0.0546875 16.390625 0.765625 L 15.921875 0.765625 L 15.921875 -5.765625 C 15.535156 -4.660156 15.015625 -3.609375 14.359375 -2.609375 C 13.710938 -1.609375 12.957031 -0.796875 12.09375 -0.171875 C 11.238281 0.453125 10.296875 0.765625 9.265625 0.765625 C 7.785156 0.765625 6.582031 0.367188 5.65625 -0.421875 C 4.726562 -1.210938 4.265625 -2.660156 4.265625 -4.765625 L 4.265625 -18.3125 C 4.265625 -18.59375 4.238281 -18.90625 4.1875 -19.25 C 4.132812 -19.59375 3.972656 -19.894531 3.703125 -20.15625 C 3.441406 -20.414062 2.976562 -20.546875 2.3125 -20.546875 Z M 2.3125 -20.546875 "/></g></g></g><g fill="#f1f1f1" fill-opacity="1"><g transform="translate(261.692407, 40.640236)"><g><path d="M 0.765625 -0.46875 L 2.53125 -0.46875 C 2.789062 -0.46875 3.066406 -0.523438 3.359375 -0.640625 C 3.660156 -0.753906 3.925781 -0.988281 4.15625 -1.34375 C 4.382812 -1.707031 4.5 -2.234375 4.5 -2.921875 L 4.5 -33.890625 C 4.5 -34.171875 4.472656 -34.484375 4.421875 -34.828125 C 4.367188 -35.179688 4.207031 -35.484375 3.9375 -35.734375 C 3.675781 -35.992188 3.207031 -36.125 2.53125 -36.125 L 2.53125 -36.578125 C 3.894531 -36.578125 4.921875 -36.878906 5.609375 -37.484375 C 6.304688 -38.085938 6.65625 -38.671875 6.65625 -39.234375 L 7.109375 -39.234375 L 7.109375 -2.921875 C 7.109375 -2.234375 7.222656 -1.707031 7.453125 -1.34375 C 7.691406 -0.988281 7.960938 -0.753906 8.265625 -0.640625 C 8.578125 -0.523438 8.847656 -0.46875 9.078125 -0.46875 L 10.84375 -0.46875 L 10.84375 0 L 0.765625 0 Z M 0.765625 -0.46875 "/></g></g></g><g fill="#f1f1f1" fill-opacity="1"><g transform="translate(272.924687, 40.640236)"><g><path d="M 0.765625 -0.46875 L 2.53125 -0.46875 C 2.789062 -0.46875 3.066406 -0.523438 3.359375 -0.640625 C 3.660156 -0.753906 3.925781 -0.988281 4.15625 -1.34375 C 4.382812 -1.707031 4.5 -2.234375 4.5 -2.921875 L 4.5 -18.3125 C 4.5 -18.59375 4.472656 -18.90625 4.421875 -19.25 C 4.367188 -19.59375 4.207031 -19.894531 3.9375 -20.15625 C 3.675781 -20.414062 3.207031 -20.546875 2.53125 -20.546875 L 2.53125 -21 C 3.894531 -21 4.921875 -21.300781 5.609375 -21.90625 C 6.304688 -22.507812 6.65625 -23.09375 6.65625 -23.65625 L 7.109375 -23.65625 L 7.109375 -2.921875 C 7.109375 -2.234375 7.222656 -1.707031 7.453125 -1.34375 C 7.691406 -0.988281 7.960938 -0.753906 8.265625 -0.640625 C 8.578125 -0.523438 8.847656 -0.46875 9.078125 -0.46875 L 10.84375 -0.46875 L 10.84375 0 L 0.765625 0 Z M 5.8125 -25.078125 C 5.300781 -25.078125 4.859375 -25.265625 4.484375 -25.640625 C 4.109375 -26.015625 3.921875 -26.457031 3.921875 -26.96875 C 3.921875 -27.476562 4.109375 -27.921875 4.484375 -28.296875 C 4.859375 -28.671875 5.300781 -28.859375 5.8125 -28.859375 C 6.320312 -28.859375 6.757812 -28.671875 7.125 -28.296875 C 7.5 -27.921875 7.6875 -27.476562 7.6875 -26.96875 C 7.6875 -26.457031 7.5 -26.015625 7.125 -25.640625 C 6.757812 -25.265625 6.320312 -25.078125 5.8125 -25.078125 Z M 5.8125 -25.078125 "/></g></g></g><g fill="#f1f1f1" fill-opacity="1"><g transform="translate(284.156967, 40.640236)"><g><path d="M 12.46875 0.765625 C 10.332031 0.765625 8.476562 0.316406 6.90625 -0.578125 C 5.332031 -1.472656 4.109375 -2.679688 3.234375 -4.203125 C 2.359375 -5.734375 1.921875 -7.410156 1.921875 -9.234375 C 1.921875 -10.691406 2.203125 -12.054688 2.765625 -13.328125 C 3.328125 -14.597656 4.128906 -15.703125 5.171875 -16.640625 C 6.210938 -17.578125 7.453125 -18.265625 8.890625 -18.703125 C 8.421875 -19.128906 7.929688 -19.539062 7.421875 -19.9375 C 6.910156 -20.34375 6.375 -20.710938 5.8125 -21.046875 C 6.707031 -21.941406 7.753906 -22.59375 8.953125 -23 C 10.160156 -23.414062 11.507812 -23.625 13 -23.625 C 15.332031 -23.625 17.253906 -23.195312 18.765625 -22.34375 C 20.285156 -21.5 21.421875 -20.335938 22.171875 -18.859375 C 22.929688 -17.390625 23.3125 -15.734375 23.3125 -13.890625 L 23.3125 -4 C 23.3125 -2.769531 23.488281 -1.875 23.84375 -1.3125 C 24.207031 -0.75 24.925781 -0.46875 26 -0.46875 L 26 0 L 23.046875 0 C 22.117188 0 21.492188 -0.3125 21.171875 -0.9375 C 20.859375 -1.570312 20.703125 -2.234375 20.703125 -2.921875 L 20.703125 -3.078125 C 19.828125 -1.972656 18.6875 -1.054688 17.28125 -0.328125 C 15.882812 0.398438 14.28125 0.765625 12.46875 0.765625 Z M 9.46875 -18.125 C 7.851562 -17.457031 6.582031 -16.300781 5.65625 -14.65625 C 4.726562 -13.007812 4.265625 -11.160156 4.265625 -9.109375 C 4.265625 -7.367188 4.601562 -5.785156 5.28125 -4.359375 C 5.96875 -2.941406 6.925781 -1.804688 8.15625 -0.953125 C 9.382812 -0.109375 10.832031 0.3125 12.5 0.3125 C 14.0625 0.3125 15.597656 -0.0507812 17.109375 -0.78125 C 18.628906 -1.519531 19.828125 -2.554688 20.703125 -3.890625 L 20.703125 -14.96875 C 20.316406 -15.53125 19.78125 -16.097656 19.09375 -16.671875 C 18.414062 -17.253906 17.535156 -17.738281 16.453125 -18.125 C 15.378906 -18.507812 14.0625 -18.703125 12.5 -18.703125 C 11.53125 -18.703125 10.617188 -18.546875 9.765625 -18.234375 C 10.378906 -17.617188 11.023438 -16.878906 11.703125 -16.015625 C 12.390625 -15.160156 12.960938 -14.175781 13.421875 -13.0625 C 13.890625 -11.945312 14.125 -10.671875 14.125 -9.234375 C 14.125 -7.867188 13.835938 -6.769531 13.265625 -5.9375 C 12.703125 -5.101562 11.960938 -4.6875 11.046875 -4.6875 C 10.890625 -4.6875 10.769531 -4.726562 10.6875 -4.8125 C 10.925781 -4.863281 11.234375 -5.066406 11.609375 -5.421875 C 11.992188 -5.785156 12.347656 -6.289062 12.671875 -6.9375 C 12.992188 -7.59375 13.15625 -8.382812 13.15625 -9.3125 C 13.15625 -11.050781 12.820312 -12.65625 12.15625 -14.125 C 11.488281 -15.601562 10.59375 -16.9375 9.46875 -18.125 Z M 13.078125 -23.15625 C 11.441406 -23.15625 10.242188 -22.910156 9.484375 -22.421875 C 8.722656 -21.941406 8.34375 -21.351562 8.34375 -20.65625 C 8.34375 -20.425781 8.382812 -20.160156 8.46875 -19.859375 C 8.5625 -19.566406 8.800781 -19.21875 9.1875 -18.8125 C 9.707031 -18.9375 10.242188 -19.035156 10.796875 -19.109375 C 11.347656 -19.191406 11.90625 -19.234375 12.46875 -19.234375 C 14.257812 -19.234375 15.835938 -18.929688 17.203125 -18.328125 C 18.578125 -17.722656 19.71875 -16.894531 20.625 -15.84375 C 20.625 -17.082031 20.328125 -18.257812 19.734375 -19.375 C 19.140625 -20.488281 18.285156 -21.394531 17.171875 -22.09375 C 16.054688 -22.800781 14.691406 -23.15625 13.078125 -23.15625 Z M 13.078125 -23.15625 "/></g></g></g><g fill="#f1f1f1" fill-opacity="1"><g transform="translate(310.545126, 40.640236)"><g><path d="M 0.765625 0 L 0.765625 -0.46875 L 2.53125 -0.46875 C 2.789062 -0.46875 3.066406 -0.523438 3.359375 -0.640625 C 3.660156 -0.753906 3.925781 -0.988281 4.15625 -1.34375 C 4.382812 -1.707031 4.5 -2.234375 4.5 -2.921875 L 4.5 -18.3125 C 4.5 -18.59375 4.472656 -18.90625 4.421875 -19.25 C 4.367188 -19.59375 4.207031 -19.894531 3.9375 -20.15625 C 3.675781 -20.414062 3.207031 -20.546875 2.53125 -20.546875 L 2.53125 -21 C 3.894531 -21 4.921875 -21.300781 5.609375 -21.90625 C 6.304688 -22.507812 6.65625 -23.09375 6.65625 -23.65625 L 7.109375 -23.65625 L 7.109375 -17.84375 C 7.523438 -18.894531 8.050781 -19.863281 8.6875 -20.75 C 9.332031 -21.632812 10.082031 -22.335938 10.9375 -22.859375 C 11.800781 -23.390625 12.742188 -23.65625 13.765625 -23.65625 C 15.253906 -23.65625 16.457031 -23.253906 17.375 -22.453125 C 18.300781 -21.660156 18.765625 -20.21875 18.765625 -18.125 L 18.765625 -2.921875 C 18.765625 -2.234375 18.878906 -1.707031 19.109375 -1.34375 C 19.347656 -0.988281 19.617188 -0.753906 19.921875 -0.640625 C 20.234375 -0.523438 20.503906 -0.46875 20.734375 -0.46875 L 22.5 -0.46875 L 22.5 0 L 12.421875 0 L 12.421875 -0.46875 L 14.1875 -0.46875 C 14.445312 -0.46875 14.722656 -0.523438 15.015625 -0.640625 C 15.316406 -0.753906 15.582031 -0.988281 15.8125 -1.34375 C 16.039062 -1.707031 16.15625 -2.234375 16.15625 -2.921875 L 16.15625 -19.546875 C 16.15625 -20.492188 15.992188 -21.335938 15.671875 -22.078125 C 15.347656 -22.828125 14.738281 -23.203125 13.84375 -23.203125 C 12.769531 -23.203125 11.820312 -22.925781 11 -22.375 C 10.175781 -21.820312 9.484375 -21.132812 8.921875 -20.3125 C 8.359375 -19.488281 7.925781 -18.65625 7.625 -17.8125 C 7.332031 -16.96875 7.160156 -16.25 7.109375 -15.65625 L 7.109375 -2.921875 C 7.109375 -2.234375 7.222656 -1.707031 7.453125 -1.34375 C 7.691406 -0.988281 7.960938 -0.753906 8.265625 -0.640625 C 8.578125 -0.523438 8.847656 -0.46875 9.078125 -0.46875 L 10.84375 -0.46875 L 10.84375 0 Z M 0.765625 0 "/></g></g></g><g fill="#f1f1f1" fill-opacity="1"><g transform="translate(333.432827, 40.640236)"><g><path d="M 14.125 0.765625 C 11.6875 0.765625 9.550781 0.257812 7.71875 -0.75 C 5.882812 -1.757812 4.457031 -3.179688 3.4375 -5.015625 C 2.425781 -6.847656 1.921875 -8.984375 1.921875 -11.421875 C 1.921875 -13.859375 2.425781 -15.992188 3.4375 -17.828125 C 4.457031 -19.660156 5.882812 -21.082031 7.71875 -22.09375 C 9.550781 -23.113281 11.6875 -23.625 14.125 -23.625 C 16.09375 -23.625 17.71875 -23.332031 19 -22.75 C 20.28125 -22.175781 21.289062 -21.460938 22.03125 -20.609375 C 22.78125 -19.765625 23.328125 -18.921875 23.671875 -18.078125 C 24.023438 -17.234375 24.25 -16.519531 24.34375 -15.9375 C 24.445312 -15.363281 24.5 -15.078125 24.5 -15.078125 L 4.046875 -15.078125 C 3.992188 -14.742188 3.945312 -14.414062 3.90625 -14.09375 C 3.863281 -13.78125 3.84375 -13.441406 3.84375 -13.078125 C 3.84375 -10.847656 4.335938 -8.828125 5.328125 -7.015625 C 6.316406 -5.210938 7.710938 -3.769531 9.515625 -2.6875 C 11.328125 -1.613281 13.453125 -1.078125 15.890625 -1.078125 C 17.859375 -1.078125 19.585938 -1.5 21.078125 -2.34375 C 22.566406 -3.1875 23.734375 -4.382812 24.578125 -5.9375 C 25.421875 -7.488281 25.84375 -9.316406 25.84375 -11.421875 L 26.3125 -11.421875 C 26.3125 -8.984375 25.804688 -6.847656 24.796875 -5.015625 C 23.785156 -3.179688 22.359375 -1.757812 20.515625 -0.75 C 18.679688 0.257812 16.550781 0.765625 14.125 0.765625 Z M 4.109375 -15.546875 L 21.890625 -15.546875 C 21.859375 -17.023438 21.4375 -18.335938 20.625 -19.484375 C 19.820312 -20.628906 18.785156 -21.523438 17.515625 -22.171875 C 16.253906 -22.828125 14.90625 -23.15625 13.46875 -23.15625 C 11.945312 -23.15625 10.539062 -22.820312 9.25 -22.15625 C 7.957031 -21.488281 6.867188 -20.582031 5.984375 -19.4375 C 5.097656 -18.300781 4.472656 -17.003906 4.109375 -15.546875 Z M 4.109375 -15.546875 "/></g></g></g></g></g></svg>