<svg xmlns="http://www.w3.org/2000/svg" xmlns:xlink="http://www.w3.org/1999/xlink" width="500" zoomAndPan="magnify" viewBox="0 0 375 187.499995" height="250" preserveAspectRatio="xMidYMid meet" version="1.0"><defs><g/><clipPath id="56df20a9f7"><path d="M 90 0.441406 L 111 0.441406 L 111 77 L 90 77 Z M 90 0.441406 " clip-rule="nonzero"/></clipPath><clipPath id="74558b4b7a"><rect x="0" width="280" y="0" height="110"/></clipPath><clipPath id="56e18d6a46"><rect x="0" width="275" y="0" height="110"/></clipPath><clipPath id="9b07108831"><rect x="0" width="89" y="0" height="110"/></clipPath></defs><g transform="matrix(1, 0, 0, 1, 90, 74)"><g clip-path="url(#74558b4b7a)"><g fill="#f1f1f1" fill-opacity="1"><g transform="translate(1.010479, 76.259591)"><g><path d="M 2.890625 1.5625 L 2.234375 1.5625 L 2.234375 -37.03125 L 3.1875 -37.03125 L 3.1875 -19.75 C 3.1875 -15.34375 3.84375 -11.617188 5.15625 -8.578125 C 6.46875 -5.535156 8.285156 -3.234375 10.609375 -1.671875 C 12.941406 -0.109375 15.566406 0.671875 18.484375 0.671875 C 21.453125 0.671875 23.835938 -0.179688 25.640625 -1.890625 C 27.453125 -3.597656 28.765625 -5.847656 29.578125 -8.640625 C 30.390625 -11.441406 30.796875 -14.472656 30.796875 -17.734375 L 30.796875 -68.5 C 30.796875 -69.882812 30.570312 -70.910156 30.125 -71.578125 C 29.6875 -72.253906 29.179688 -72.703125 28.609375 -72.921875 C 28.046875 -73.140625 27.515625 -73.25 27.015625 -73.25 L 23.609375 -73.25 L 23.609375 -74.140625 L 43.421875 -74.140625 L 43.421875 -73.25 L 40 -73.25 C 39.5625 -73.25 39.046875 -73.140625 38.453125 -72.921875 C 37.859375 -72.703125 37.335938 -72.253906 36.890625 -71.578125 C 36.441406 -70.910156 36.21875 -69.882812 36.21875 -68.5 L 36.21875 -23.828125 C 36.21875 -18.929688 35.695312 -14.578125 34.65625 -10.765625 C 33.625 -6.953125 31.832031 -3.941406 29.28125 -1.734375 C 26.726562 0.460938 23.175781 1.5625 18.625 1.5625 C 16.5 1.5625 14.644531 1.25 13.0625 0.625 C 11.476562 0.0078125 10.101562 -0.601562 8.9375 -1.21875 C 7.78125 -1.84375 6.707031 -2.15625 5.71875 -2.15625 C 4.820312 -2.15625 4.125 -1.78125 3.625 -1.03125 C 3.132812 -0.289062 2.890625 0.570312 2.890625 1.5625 Z M 2.890625 1.5625 "/></g></g></g><g fill="#f1f1f1" fill-opacity="1"><g transform="translate(45.167901, 76.259591)"><g><path d="M 4.453125 -39.640625 L 4.453125 -40.53125 C 7.078125 -40.53125 9.054688 -41.109375 10.390625 -42.265625 C 11.722656 -43.429688 12.390625 -44.554688 12.390625 -45.640625 L 13.28125 -45.640625 L 13.28125 -6.453125 C 13.28125 -4.628906 13.601562 -3.007812 14.25 -1.59375 C 14.894531 -0.1875 16.054688 0.515625 17.734375 0.515625 C 19.816406 0.515625 21.648438 -0.078125 23.234375 -1.265625 C 24.816406 -2.453125 26.148438 -3.9375 27.234375 -5.71875 C 28.328125 -7.5 29.171875 -9.28125 29.765625 -11.0625 C 30.359375 -12.84375 30.679688 -14.300781 30.734375 -15.4375 L 30.734375 -35.328125 C 30.734375 -35.867188 30.679688 -36.472656 30.578125 -37.140625 C 30.484375 -37.816406 30.175781 -38.398438 29.65625 -38.890625 C 29.132812 -39.390625 28.226562 -39.640625 26.9375 -39.640625 L 26.9375 -40.53125 C 29.5625 -40.53125 31.539062 -41.109375 32.875 -42.265625 C 34.21875 -43.429688 34.890625 -44.554688 34.890625 -45.640625 L 35.78125 -45.640625 L 35.78125 -8.765625 C 35.78125 -6.734375 36 -5.429688 36.4375 -4.859375 C 36.882812 -4.296875 37.457031 -4.015625 38.15625 -4.015625 L 40.234375 -4.015625 L 40.234375 -3.125 C 39.535156 -3.125 38.675781 -3.070312 37.65625 -2.96875 C 36.644531 -2.875 35.609375 -2.503906 34.546875 -1.859375 C 33.484375 -1.210938 32.507812 -0.0976562 31.625 1.484375 L 30.734375 1.484375 L 30.734375 -11.140625 C 29.984375 -9.003906 28.976562 -6.972656 27.71875 -5.046875 C 26.457031 -3.117188 25 -1.546875 23.34375 -0.328125 C 21.6875 0.878906 19.867188 1.484375 17.890625 1.484375 C 15.015625 1.484375 12.6875 0.71875 10.90625 -0.8125 C 9.125 -2.351562 8.234375 -5.148438 8.234375 -9.203125 L 8.234375 -35.328125 C 8.234375 -35.867188 8.179688 -36.472656 8.078125 -37.140625 C 7.984375 -37.816406 7.675781 -38.398438 7.15625 -38.890625 C 6.644531 -39.390625 5.742188 -39.640625 4.453125 -39.640625 Z M 4.453125 -39.640625 "/></g></g></g><g clip-path="url(#56df20a9f7)"><g fill="#f1f1f1" fill-opacity="1"><g transform="translate(89.102684, 76.259591)"><g><path d="M 1.484375 -0.890625 L 4.90625 -0.890625 C 5.394531 -0.890625 5.921875 -1 6.484375 -1.21875 C 7.054688 -1.445312 7.566406 -1.90625 8.015625 -2.59375 C 8.460938 -3.289062 8.6875 -4.304688 8.6875 -5.640625 L 8.6875 -65.390625 C 8.6875 -65.929688 8.632812 -66.535156 8.53125 -67.203125 C 8.4375 -67.867188 8.128906 -68.445312 7.609375 -68.9375 C 7.085938 -69.4375 6.1875 -69.6875 4.90625 -69.6875 L 4.90625 -70.578125 C 7.519531 -70.578125 9.492188 -71.160156 10.828125 -72.328125 C 12.171875 -73.492188 12.84375 -74.617188 12.84375 -75.703125 L 13.734375 -75.703125 L 13.734375 -5.640625 C 13.734375 -4.304688 13.953125 -3.289062 14.390625 -2.59375 C 14.835938 -1.90625 15.359375 -1.445312 15.953125 -1.21875 C 16.546875 -1 17.066406 -0.890625 17.515625 -0.890625 L 20.9375 -0.890625 L 20.9375 0 L 1.484375 0 Z M 1.484375 -0.890625 "/></g></g></g></g><g fill="#f1f1f1" fill-opacity="1"><g transform="translate(110.773213, 76.259591)"><g><path d="M 1.484375 -0.890625 L 4.90625 -0.890625 C 5.394531 -0.890625 5.921875 -1 6.484375 -1.21875 C 7.054688 -1.445312 7.566406 -1.90625 8.015625 -2.59375 C 8.460938 -3.289062 8.6875 -4.304688 8.6875 -5.640625 L 8.6875 -35.328125 C 8.6875 -35.867188 8.632812 -36.472656 8.53125 -37.140625 C 8.4375 -37.816406 8.128906 -38.398438 7.609375 -38.890625 C 7.085938 -39.390625 6.1875 -39.640625 4.90625 -39.640625 L 4.90625 -40.53125 C 7.519531 -40.53125 9.492188 -41.109375 10.828125 -42.265625 C 12.171875 -43.429688 12.84375 -44.554688 12.84375 -45.640625 L 13.734375 -45.640625 L 13.734375 -5.640625 C 13.734375 -4.304688 13.953125 -3.289062 14.390625 -2.59375 C 14.835938 -1.90625 15.359375 -1.445312 15.953125 -1.21875 C 16.546875 -1 17.066406 -0.890625 17.515625 -0.890625 L 20.9375 -0.890625 L 20.9375 0 L 1.484375 0 Z M 11.203125 -48.390625 C 10.210938 -48.390625 9.359375 -48.75 8.640625 -49.46875 C 7.929688 -50.1875 7.578125 -51.039062 7.578125 -52.03125 C 7.578125 -53.019531 7.929688 -53.875 8.640625 -54.59375 C 9.359375 -55.3125 10.210938 -55.671875 11.203125 -55.671875 C 12.191406 -55.671875 13.046875 -55.3125 13.765625 -54.59375 C 14.484375 -53.875 14.84375 -53.019531 14.84375 -52.03125 C 14.84375 -51.039062 14.484375 -50.1875 13.765625 -49.46875 C 13.046875 -48.75 12.191406 -48.390625 11.203125 -48.390625 Z M 11.203125 -48.390625 "/></g></g></g><g fill="#f1f1f1" fill-opacity="1"><g transform="translate(132.443742, 76.259591)"><g><path d="M 24.046875 1.484375 C 19.941406 1.484375 16.367188 0.617188 13.328125 -1.109375 C 10.285156 -2.847656 7.921875 -5.1875 6.234375 -8.125 C 4.554688 -11.070312 3.71875 -14.300781 3.71875 -17.8125 C 3.71875 -20.632812 4.257812 -23.269531 5.34375 -25.71875 C 6.4375 -28.164062 7.984375 -30.289062 9.984375 -32.09375 C 11.984375 -33.90625 14.367188 -35.234375 17.140625 -36.078125 C 16.253906 -36.910156 15.316406 -37.710938 14.328125 -38.484375 C 13.335938 -39.253906 12.296875 -39.957031 11.203125 -40.59375 C 12.941406 -42.332031 14.972656 -43.597656 17.296875 -44.390625 C 19.617188 -45.179688 22.21875 -45.578125 25.09375 -45.578125 C 29.59375 -45.578125 33.300781 -44.757812 36.21875 -43.125 C 39.132812 -41.488281 41.320312 -39.25 42.78125 -36.40625 C 44.25 -33.5625 44.984375 -30.359375 44.984375 -26.796875 L 44.984375 -7.71875 C 44.984375 -5.34375 45.328125 -3.609375 46.015625 -2.515625 C 46.710938 -1.429688 48.097656 -0.890625 50.171875 -0.890625 L 50.171875 0 L 44.453125 0 C 42.671875 0 41.472656 -0.601562 40.859375 -1.8125 C 40.242188 -3.03125 39.9375 -4.304688 39.9375 -5.640625 L 39.9375 -5.9375 C 38.25 -3.8125 36.054688 -2.039062 33.359375 -0.625 C 30.660156 0.78125 27.554688 1.484375 24.046875 1.484375 Z M 18.265625 -34.953125 C 15.140625 -33.671875 12.6875 -31.445312 10.90625 -28.28125 C 9.125 -25.113281 8.234375 -21.550781 8.234375 -17.59375 C 8.234375 -14.226562 8.890625 -11.171875 10.203125 -8.421875 C 11.515625 -5.679688 13.359375 -3.492188 15.734375 -1.859375 C 18.109375 -0.222656 20.90625 0.59375 24.125 0.59375 C 27.144531 0.59375 30.113281 -0.109375 33.03125 -1.515625 C 35.945312 -2.929688 38.25 -4.925781 39.9375 -7.5 L 39.9375 -28.875 C 39.1875 -29.957031 38.15625 -31.054688 36.84375 -32.171875 C 35.539062 -33.285156 33.847656 -34.210938 31.765625 -34.953125 C 29.691406 -35.703125 27.144531 -36.078125 24.125 -36.078125 C 22.238281 -36.078125 20.484375 -35.78125 18.859375 -35.1875 C 20.046875 -34 21.289062 -32.570312 22.59375 -30.90625 C 23.90625 -29.25 25.003906 -27.34375 25.890625 -25.1875 C 26.785156 -23.039062 27.234375 -20.582031 27.234375 -17.8125 C 27.234375 -15.1875 26.6875 -13.070312 25.59375 -11.46875 C 24.507812 -9.863281 23.078125 -9.0625 21.296875 -9.0625 C 21.003906 -9.0625 20.785156 -9.132812 20.640625 -9.28125 C 21.078125 -9.375 21.664062 -9.765625 22.40625 -10.453125 C 23.15625 -11.148438 23.835938 -12.128906 24.453125 -13.390625 C 25.078125 -14.660156 25.390625 -16.1875 25.390625 -17.96875 C 25.390625 -21.332031 24.742188 -24.4375 23.453125 -27.28125 C 22.171875 -30.125 20.441406 -32.679688 18.265625 -34.953125 Z M 25.234375 -44.6875 C 22.066406 -44.6875 19.753906 -44.210938 18.296875 -43.265625 C 16.835938 -42.328125 16.109375 -41.191406 16.109375 -39.859375 C 16.109375 -39.410156 16.191406 -38.898438 16.359375 -38.328125 C 16.535156 -37.765625 16.992188 -37.085938 17.734375 -36.296875 C 18.722656 -36.546875 19.75 -36.742188 20.8125 -36.890625 C 21.882812 -37.035156 22.960938 -37.109375 24.046875 -37.109375 C 27.515625 -37.109375 30.570312 -36.523438 33.21875 -35.359375 C 35.863281 -34.203125 38.050781 -32.609375 39.78125 -30.578125 C 39.78125 -32.953125 39.210938 -35.210938 38.078125 -37.359375 C 36.941406 -39.515625 35.296875 -41.273438 33.140625 -42.640625 C 30.984375 -44.003906 28.347656 -44.6875 25.234375 -44.6875 Z M 25.234375 -44.6875 "/></g></g></g><g fill="#f1f1f1" fill-opacity="1"><g transform="translate(183.354651, 76.259591)"><g><path d="M 1.484375 0 L 1.484375 -0.890625 L 4.90625 -0.890625 C 5.394531 -0.890625 5.921875 -1 6.484375 -1.21875 C 7.054688 -1.445312 7.566406 -1.90625 8.015625 -2.59375 C 8.460938 -3.289062 8.6875 -4.304688 8.6875 -5.640625 L 8.6875 -35.328125 C 8.6875 -35.867188 8.632812 -36.472656 8.53125 -37.140625 C 8.4375 -37.816406 8.128906 -38.398438 7.609375 -38.890625 C 7.085938 -39.390625 6.1875 -39.640625 4.90625 -39.640625 L 4.90625 -40.53125 C 7.519531 -40.53125 9.492188 -41.109375 10.828125 -42.265625 C 12.171875 -43.429688 12.84375 -44.554688 12.84375 -45.640625 L 13.734375 -45.640625 L 13.734375 -34.4375 C 14.523438 -36.46875 15.535156 -38.335938 16.765625 -40.046875 C 18.003906 -41.753906 19.453125 -43.113281 21.109375 -44.125 C 22.773438 -45.132812 24.597656 -45.640625 26.578125 -45.640625 C 29.441406 -45.640625 31.765625 -44.875 33.546875 -43.34375 C 35.328125 -41.8125 36.21875 -39.015625 36.21875 -34.953125 L 36.21875 -5.640625 C 36.21875 -4.304688 36.441406 -3.289062 36.890625 -2.59375 C 37.335938 -1.90625 37.859375 -1.445312 38.453125 -1.21875 C 39.046875 -1 39.5625 -0.890625 40 -0.890625 L 43.421875 -0.890625 L 43.421875 0 L 23.96875 0 L 23.96875 -0.890625 L 27.390625 -0.890625 C 27.878906 -0.890625 28.410156 -1 28.984375 -1.21875 C 29.554688 -1.445312 30.0625 -1.90625 30.5 -2.59375 C 30.945312 -3.289062 31.171875 -4.304688 31.171875 -5.640625 L 31.171875 -37.703125 C 31.171875 -39.535156 30.859375 -41.164062 30.234375 -42.59375 C 29.617188 -44.03125 28.445312 -44.75 26.71875 -44.75 C 24.644531 -44.75 22.816406 -44.21875 21.234375 -43.15625 C 19.648438 -42.09375 18.3125 -40.769531 17.21875 -39.1875 C 16.132812 -37.601562 15.304688 -35.992188 14.734375 -34.359375 C 14.160156 -32.734375 13.828125 -31.347656 13.734375 -30.203125 L 13.734375 -5.640625 C 13.734375 -4.304688 13.953125 -3.289062 14.390625 -2.59375 C 14.835938 -1.90625 15.359375 -1.445312 15.953125 -1.21875 C 16.546875 -1 17.066406 -0.890625 17.515625 -0.890625 L 20.9375 -0.890625 L 20.9375 0 Z M 1.484375 0 "/></g></g></g><g fill="#f1f1f1" fill-opacity="1"><g transform="translate(227.51206, 76.259591)"><g><path d="M 27.234375 1.484375 C 22.535156 1.484375 18.414062 0.507812 14.875 -1.4375 C 11.34375 -3.394531 8.597656 -6.144531 6.640625 -9.6875 C 4.691406 -13.226562 3.71875 -17.347656 3.71875 -22.046875 C 3.71875 -26.742188 4.691406 -30.859375 6.640625 -34.390625 C 8.597656 -37.929688 11.34375 -40.679688 14.875 -42.640625 C 18.414062 -44.597656 22.535156 -45.578125 27.234375 -45.578125 C 31.046875 -45.578125 34.1875 -45.019531 36.65625 -43.90625 C 39.132812 -42.789062 41.09375 -41.414062 42.53125 -39.78125 C 43.96875 -38.144531 45.019531 -36.507812 45.6875 -34.875 C 46.351562 -33.25 46.785156 -31.878906 46.984375 -30.765625 C 47.179688 -29.648438 47.28125 -29.09375 47.28125 -29.09375 L 7.796875 -29.09375 C 7.691406 -28.445312 7.601562 -27.816406 7.53125 -27.203125 C 7.457031 -26.585938 7.421875 -25.929688 7.421875 -25.234375 C 7.421875 -20.929688 8.375 -17.035156 10.28125 -13.546875 C 12.1875 -10.054688 14.882812 -7.269531 18.375 -5.1875 C 21.863281 -3.113281 25.957031 -2.078125 30.65625 -2.078125 C 34.46875 -2.078125 37.804688 -2.894531 40.671875 -4.53125 C 43.546875 -6.164062 45.796875 -8.476562 47.421875 -11.46875 C 49.054688 -14.457031 49.875 -17.984375 49.875 -22.046875 L 50.765625 -22.046875 C 50.765625 -17.347656 49.785156 -13.226562 47.828125 -9.6875 C 45.878906 -6.144531 43.132812 -3.394531 39.59375 -1.4375 C 36.0625 0.507812 31.941406 1.484375 27.234375 1.484375 Z M 7.9375 -29.984375 L 42.234375 -29.984375 C 42.179688 -32.859375 41.375 -35.394531 39.8125 -37.59375 C 38.257812 -39.789062 36.257812 -41.519531 33.8125 -42.78125 C 31.363281 -44.050781 28.753906 -44.6875 25.984375 -44.6875 C 23.054688 -44.6875 20.34375 -44.039062 17.84375 -42.75 C 15.351562 -41.46875 13.253906 -39.722656 11.546875 -37.515625 C 9.835938 -35.316406 8.632812 -32.804688 7.9375 -29.984375 Z M 7.9375 -29.984375 "/></g></g></g></g></g><g transform="matrix(1, 0, 0, 1, 2, 0)"><g clip-path="url(#56e18d6a46)"><g fill="#f1f1f1" fill-opacity="1"><g transform="translate(0.325561, 76.756312)"><g><path d="M 2.234375 0 L 2.234375 -0.890625 L 5.640625 -0.890625 C 6.140625 -0.890625 6.671875 -1 7.234375 -1.21875 C 7.804688 -1.445312 8.3125 -1.90625 8.75 -2.59375 C 9.195312 -3.289062 9.421875 -4.304688 9.421875 -5.640625 L 9.421875 -68.578125 C 9.421875 -69.960938 9.195312 -70.988281 8.75 -71.65625 C 8.3125 -72.320312 7.804688 -72.765625 7.234375 -72.984375 C 6.671875 -73.210938 6.140625 -73.328125 5.640625 -73.328125 L 2.234375 -73.328125 L 2.234375 -74.21875 L 27.828125 -74.21875 C 30.054688 -74.21875 32.332031 -73.867188 34.65625 -73.171875 C 36.988281 -72.484375 39.117188 -71.394531 41.046875 -69.90625 C 42.972656 -68.425781 44.53125 -66.507812 45.71875 -64.15625 C 46.90625 -61.8125 47.5 -58.984375 47.5 -55.671875 C 47.5 -52.847656 46.941406 -50.3125 45.828125 -48.0625 C 44.710938 -45.8125 43.238281 -43.878906 41.40625 -42.265625 C 39.582031 -40.660156 37.566406 -39.425781 35.359375 -38.5625 C 33.160156 -37.695312 30.972656 -37.210938 28.796875 -37.109375 C 31.273438 -33.097656 33.488281 -29.457031 35.4375 -26.1875 C 37.394531 -22.925781 39.335938 -19.722656 41.265625 -16.578125 C 43.191406 -13.441406 45.34375 -10.046875 47.71875 -6.390625 C 48.863281 -4.609375 50.210938 -3.242188 51.765625 -2.296875 C 53.328125 -1.359375 55.320312 -0.890625 57.75 -0.890625 L 57.75 0 C 57.050781 0 56.144531 0 55.03125 0 C 53.914062 0 52.800781 0 51.6875 0 C 50.582031 0 49.65625 0 48.90625 0 C 48.070312 0 47.332031 -0.125 46.6875 -0.375 C 46.039062 -0.625 45.375 -1.265625 44.6875 -2.296875 C 42.601562 -5.660156 40.71875 -8.691406 39.03125 -11.390625 C 37.351562 -14.085938 35.75 -16.722656 34.21875 -19.296875 C 32.6875 -21.867188 31.066406 -24.578125 29.359375 -27.421875 C 27.648438 -30.265625 25.679688 -33.492188 23.453125 -37.109375 L 14.84375 -37.109375 L 14.84375 -5.640625 C 14.84375 -4.304688 15.066406 -3.289062 15.515625 -2.59375 C 15.960938 -1.90625 16.484375 -1.445312 17.078125 -1.21875 C 17.671875 -1 18.1875 -0.890625 18.625 -0.890625 L 22.046875 -0.890625 L 22.046875 0 Z M 14.84375 -73.40625 L 14.84375 -38 L 23.96875 -38 C 28.125 -38 31.523438 -38.789062 34.171875 -40.375 C 36.828125 -41.957031 38.785156 -44.082031 40.046875 -46.75 C 41.304688 -49.425781 41.9375 -52.398438 41.9375 -55.671875 C 41.9375 -57.742188 41.585938 -59.832031 40.890625 -61.9375 C 40.203125 -64.039062 39.128906 -65.957031 37.671875 -67.6875 C 36.210938 -69.414062 34.351562 -70.8125 32.09375 -71.875 C 29.84375 -72.945312 27.1875 -73.484375 24.125 -73.484375 C 22.789062 -73.484375 21.738281 -73.484375 20.96875 -73.484375 C 20.195312 -73.484375 19.539062 -73.484375 19 -73.484375 C 18.457031 -73.484375 17.890625 -73.46875 17.296875 -73.4375 C 16.703125 -73.414062 15.882812 -73.40625 14.84375 -73.40625 Z M 14.84375 -73.40625 "/></g></g></g><g fill="#f1f1f1" fill-opacity="1"><g transform="translate(60.290595, 76.756312)"><g><path d="M 24.046875 1.484375 C 19.941406 1.484375 16.367188 0.617188 13.328125 -1.109375 C 10.285156 -2.847656 7.921875 -5.1875 6.234375 -8.125 C 4.554688 -11.070312 3.71875 -14.300781 3.71875 -17.8125 C 3.71875 -20.632812 4.257812 -23.269531 5.34375 -25.71875 C 6.4375 -28.164062 7.984375 -30.289062 9.984375 -32.09375 C 11.984375 -33.90625 14.367188 -35.234375 17.140625 -36.078125 C 16.253906 -36.910156 15.316406 -37.710938 14.328125 -38.484375 C 13.335938 -39.253906 12.296875 -39.957031 11.203125 -40.59375 C 12.941406 -42.332031 14.972656 -43.597656 17.296875 -44.390625 C 19.617188 -45.179688 22.21875 -45.578125 25.09375 -45.578125 C 29.59375 -45.578125 33.300781 -44.757812 36.21875 -43.125 C 39.132812 -41.488281 41.320312 -39.25 42.78125 -36.40625 C 44.25 -33.5625 44.984375 -30.359375 44.984375 -26.796875 L 44.984375 -7.71875 C 44.984375 -5.34375 45.328125 -3.609375 46.015625 -2.515625 C 46.710938 -1.429688 48.097656 -0.890625 50.171875 -0.890625 L 50.171875 0 L 44.453125 0 C 42.671875 0 41.472656 -0.601562 40.859375 -1.8125 C 40.242188 -3.03125 39.9375 -4.304688 39.9375 -5.640625 L 39.9375 -5.9375 C 38.25 -3.8125 36.054688 -2.039062 33.359375 -0.625 C 30.660156 0.78125 27.554688 1.484375 24.046875 1.484375 Z M 18.265625 -34.953125 C 15.140625 -33.671875 12.6875 -31.445312 10.90625 -28.28125 C 9.125 -25.113281 8.234375 -21.550781 8.234375 -17.59375 C 8.234375 -14.226562 8.890625 -11.171875 10.203125 -8.421875 C 11.515625 -5.679688 13.359375 -3.492188 15.734375 -1.859375 C 18.109375 -0.222656 20.90625 0.59375 24.125 0.59375 C 27.144531 0.59375 30.113281 -0.109375 33.03125 -1.515625 C 35.945312 -2.929688 38.25 -4.925781 39.9375 -7.5 L 39.9375 -28.875 C 39.1875 -29.957031 38.15625 -31.054688 36.84375 -32.171875 C 35.539062 -33.285156 33.847656 -34.210938 31.765625 -34.953125 C 29.691406 -35.703125 27.144531 -36.078125 24.125 -36.078125 C 22.238281 -36.078125 20.484375 -35.78125 18.859375 -35.1875 C 20.046875 -34 21.289062 -32.570312 22.59375 -30.90625 C 23.90625 -29.25 25.003906 -27.34375 25.890625 -25.1875 C 26.785156 -23.039062 27.234375 -20.582031 27.234375 -17.8125 C 27.234375 -15.1875 26.6875 -13.070312 25.59375 -11.46875 C 24.507812 -9.863281 23.078125 -9.0625 21.296875 -9.0625 C 21.003906 -9.0625 20.785156 -9.132812 20.640625 -9.28125 C 21.078125 -9.375 21.664062 -9.765625 22.40625 -10.453125 C 23.15625 -11.148438 23.835938 -12.128906 24.453125 -13.390625 C 25.078125 -14.660156 25.390625 -16.1875 25.390625 -17.96875 C 25.390625 -21.332031 24.742188 -24.4375 23.453125 -27.28125 C 22.171875 -30.125 20.441406 -32.679688 18.265625 -34.953125 Z M 25.234375 -44.6875 C 22.066406 -44.6875 19.753906 -44.210938 18.296875 -43.265625 C 16.835938 -42.328125 16.109375 -41.191406 16.109375 -39.859375 C 16.109375 -39.410156 16.191406 -38.898438 16.359375 -38.328125 C 16.535156 -37.765625 16.992188 -37.085938 17.734375 -36.296875 C 18.722656 -36.546875 19.75 -36.742188 20.8125 -36.890625 C 21.882812 -37.035156 22.960938 -37.109375 24.046875 -37.109375 C 27.515625 -37.109375 30.570312 -36.523438 33.21875 -35.359375 C 35.863281 -34.203125 38.050781 -32.609375 39.78125 -30.578125 C 39.78125 -32.953125 39.210938 -35.210938 38.078125 -37.359375 C 36.941406 -39.515625 35.296875 -41.273438 33.140625 -42.640625 C 30.984375 -44.003906 28.347656 -44.6875 25.234375 -44.6875 Z M 25.234375 -44.6875 "/></g></g></g><g fill="#f1f1f1" fill-opacity="1"><g transform="translate(111.201504, 76.756312)"><g><path d="M 1.484375 -0.890625 L 4.90625 -0.890625 C 5.394531 -0.890625 5.921875 -1 6.484375 -1.21875 C 7.054688 -1.445312 7.566406 -1.90625 8.015625 -2.59375 C 8.460938 -3.289062 8.6875 -4.304688 8.6875 -5.640625 L 8.6875 -43.203125 L 2 -43.203125 L 2 -44.09375 L 8.6875 -44.09375 L 8.6875 -57.8125 C 8.6875 -59.644531 8.90625 -61.597656 9.34375 -63.671875 C 9.789062 -65.753906 10.570312 -67.695312 11.6875 -69.5 C 12.800781 -71.3125 14.359375 -72.796875 16.359375 -73.953125 C 18.367188 -75.117188 20.929688 -75.703125 24.046875 -75.703125 C 26.472656 -75.703125 28.453125 -75.378906 29.984375 -74.734375 C 31.515625 -74.097656 32.765625 -73.441406 33.734375 -72.765625 C 34.703125 -72.097656 35.484375 -71.765625 36.078125 -71.765625 C 36.617188 -71.765625 37.085938 -72.035156 37.484375 -72.578125 C 37.878906 -73.128906 38.347656 -74.171875 38.890625 -75.703125 L 39.859375 -75.703125 L 30.359375 -49.28125 L 29.46875 -49.28125 L 31.6875 -55.671875 C 33.125 -59.828125 33.707031 -63.335938 33.4375 -66.203125 C 33.164062 -69.078125 32.210938 -71.253906 30.578125 -72.734375 C 28.941406 -74.222656 26.765625 -74.96875 24.046875 -74.96875 C 21.222656 -74.96875 18.882812 -74.445312 17.03125 -73.40625 C 15.175781 -72.363281 13.789062 -71.035156 12.875 -69.421875 C 11.957031 -67.816406 11.5 -66.203125 11.5 -64.578125 C 11.5 -63.585938 11.609375 -62.707031 11.828125 -61.9375 C 12.054688 -61.164062 12.316406 -60.285156 12.609375 -59.296875 C 12.910156 -58.304688 13.171875 -57.03125 13.390625 -55.46875 C 13.617188 -53.914062 13.734375 -51.878906 13.734375 -49.359375 L 13.734375 -44.09375 L 20.40625 -44.09375 L 20.40625 -43.203125 L 13.734375 -43.203125 L 13.734375 -5.640625 C 13.734375 -4.304688 13.953125 -3.289062 14.390625 -2.59375 C 14.835938 -1.90625 15.359375 -1.445312 15.953125 -1.21875 C 16.546875 -1 17.066406 -0.890625 17.515625 -0.890625 L 20.9375 -0.890625 L 20.9375 0 L 1.484375 0 Z M 1.484375 -0.890625 "/></g></g></g><g fill="#f1f1f1" fill-opacity="1"><g transform="translate(151.054505, 76.756312)"><g><path d="M 24.046875 1.484375 C 19.941406 1.484375 16.367188 0.617188 13.328125 -1.109375 C 10.285156 -2.847656 7.921875 -5.1875 6.234375 -8.125 C 4.554688 -11.070312 3.71875 -14.300781 3.71875 -17.8125 C 3.71875 -20.632812 4.257812 -23.269531 5.34375 -25.71875 C 6.4375 -28.164062 7.984375 -30.289062 9.984375 -32.09375 C 11.984375 -33.90625 14.367188 -35.234375 17.140625 -36.078125 C 16.253906 -36.910156 15.316406 -37.710938 14.328125 -38.484375 C 13.335938 -39.253906 12.296875 -39.957031 11.203125 -40.59375 C 12.941406 -42.332031 14.972656 -43.597656 17.296875 -44.390625 C 19.617188 -45.179688 22.21875 -45.578125 25.09375 -45.578125 C 29.59375 -45.578125 33.300781 -44.757812 36.21875 -43.125 C 39.132812 -41.488281 41.320312 -39.25 42.78125 -36.40625 C 44.25 -33.5625 44.984375 -30.359375 44.984375 -26.796875 L 44.984375 -7.71875 C 44.984375 -5.34375 45.328125 -3.609375 46.015625 -2.515625 C 46.710938 -1.429688 48.097656 -0.890625 50.171875 -0.890625 L 50.171875 0 L 44.453125 0 C 42.671875 0 41.472656 -0.601562 40.859375 -1.8125 C 40.242188 -3.03125 39.9375 -4.304688 39.9375 -5.640625 L 39.9375 -5.9375 C 38.25 -3.8125 36.054688 -2.039062 33.359375 -0.625 C 30.660156 0.78125 27.554688 1.484375 24.046875 1.484375 Z M 18.265625 -34.953125 C 15.140625 -33.671875 12.6875 -31.445312 10.90625 -28.28125 C 9.125 -25.113281 8.234375 -21.550781 8.234375 -17.59375 C 8.234375 -14.226562 8.890625 -11.171875 10.203125 -8.421875 C 11.515625 -5.679688 13.359375 -3.492188 15.734375 -1.859375 C 18.109375 -0.222656 20.90625 0.59375 24.125 0.59375 C 27.144531 0.59375 30.113281 -0.109375 33.03125 -1.515625 C 35.945312 -2.929688 38.25 -4.925781 39.9375 -7.5 L 39.9375 -28.875 C 39.1875 -29.957031 38.15625 -31.054688 36.84375 -32.171875 C 35.539062 -33.285156 33.847656 -34.210938 31.765625 -34.953125 C 29.691406 -35.703125 27.144531 -36.078125 24.125 -36.078125 C 22.238281 -36.078125 20.484375 -35.78125 18.859375 -35.1875 C 20.046875 -34 21.289062 -32.570312 22.59375 -30.90625 C 23.90625 -29.25 25.003906 -27.34375 25.890625 -25.1875 C 26.785156 -23.039062 27.234375 -20.582031 27.234375 -17.8125 C 27.234375 -15.1875 26.6875 -13.070312 25.59375 -11.46875 C 24.507812 -9.863281 23.078125 -9.0625 21.296875 -9.0625 C 21.003906 -9.0625 20.785156 -9.132812 20.640625 -9.28125 C 21.078125 -9.375 21.664062 -9.765625 22.40625 -10.453125 C 23.15625 -11.148438 23.835938 -12.128906 24.453125 -13.390625 C 25.078125 -14.660156 25.390625 -16.1875 25.390625 -17.96875 C 25.390625 -21.332031 24.742188 -24.4375 23.453125 -27.28125 C 22.171875 -30.125 20.441406 -32.679688 18.265625 -34.953125 Z M 25.234375 -44.6875 C 22.066406 -44.6875 19.753906 -44.210938 18.296875 -43.265625 C 16.835938 -42.328125 16.109375 -41.191406 16.109375 -39.859375 C 16.109375 -39.410156 16.191406 -38.898438 16.359375 -38.328125 C 16.535156 -37.765625 16.992188 -37.085938 17.734375 -36.296875 C 18.722656 -36.546875 19.75 -36.742188 20.8125 -36.890625 C 21.882812 -37.035156 22.960938 -37.109375 24.046875 -37.109375 C 27.515625 -37.109375 30.570312 -36.523438 33.21875 -35.359375 C 35.863281 -34.203125 38.050781 -32.609375 39.78125 -30.578125 C 39.78125 -32.953125 39.210938 -35.210938 38.078125 -37.359375 C 36.941406 -39.515625 35.296875 -41.273438 33.140625 -42.640625 C 30.984375 -44.003906 28.347656 -44.6875 25.234375 -44.6875 Z M 25.234375 -44.6875 "/></g></g></g><g fill="#f1f1f1" fill-opacity="1"><g transform="translate(201.965424, 76.756312)"><g><path d="M 27.234375 1.484375 C 22.535156 1.484375 18.414062 0.507812 14.875 -1.4375 C 11.34375 -3.394531 8.597656 -6.144531 6.640625 -9.6875 C 4.691406 -13.226562 3.71875 -17.347656 3.71875 -22.046875 C 3.71875 -26.742188 4.691406 -30.859375 6.640625 -34.390625 C 8.597656 -37.929688 11.34375 -40.679688 14.875 -42.640625 C 18.414062 -44.597656 22.535156 -45.578125 27.234375 -45.578125 C 31.046875 -45.578125 34.1875 -45.019531 36.65625 -43.90625 C 39.132812 -42.789062 41.09375 -41.414062 42.53125 -39.78125 C 43.96875 -38.144531 45.019531 -36.507812 45.6875 -34.875 C 46.351562 -33.25 46.785156 -31.878906 46.984375 -30.765625 C 47.179688 -29.648438 47.28125 -29.09375 47.28125 -29.09375 L 7.796875 -29.09375 C 7.691406 -28.445312 7.601562 -27.816406 7.53125 -27.203125 C 7.457031 -26.585938 7.421875 -25.929688 7.421875 -25.234375 C 7.421875 -20.929688 8.375 -17.035156 10.28125 -13.546875 C 12.1875 -10.054688 14.882812 -7.269531 18.375 -5.1875 C 21.863281 -3.113281 25.957031 -2.078125 30.65625 -2.078125 C 34.46875 -2.078125 37.804688 -2.894531 40.671875 -4.53125 C 43.546875 -6.164062 45.796875 -8.476562 47.421875 -11.46875 C 49.054688 -14.457031 49.875 -17.984375 49.875 -22.046875 L 50.765625 -22.046875 C 50.765625 -17.347656 49.785156 -13.226562 47.828125 -9.6875 C 45.878906 -6.144531 43.132812 -3.394531 39.59375 -1.4375 C 36.0625 0.507812 31.941406 1.484375 27.234375 1.484375 Z M 7.9375 -29.984375 L 42.234375 -29.984375 C 42.179688 -32.859375 41.375 -35.394531 39.8125 -37.59375 C 38.257812 -39.789062 36.257812 -41.519531 33.8125 -42.78125 C 31.363281 -44.050781 28.753906 -44.6875 25.984375 -44.6875 C 23.054688 -44.6875 20.34375 -44.039062 17.84375 -42.75 C 15.351562 -41.46875 13.253906 -39.722656 11.546875 -37.515625 C 9.835938 -35.316406 8.632812 -32.804688 7.9375 -29.984375 Z M 7.9375 -29.984375 "/></g></g></g><g fill="#f1f1f1" fill-opacity="1"><g transform="translate(251.985738, 76.756312)"><g><path d="M 1.484375 -0.890625 L 4.90625 -0.890625 C 5.394531 -0.890625 5.921875 -1 6.484375 -1.21875 C 7.054688 -1.445312 7.566406 -1.90625 8.015625 -2.59375 C 8.460938 -3.289062 8.6875 -4.304688 8.6875 -5.640625 L 8.6875 -65.390625 C 8.6875 -65.929688 8.632812 -66.535156 8.53125 -67.203125 C 8.4375 -67.867188 8.128906 -68.445312 7.609375 -68.9375 C 7.085938 -69.4375 6.1875 -69.6875 4.90625 -69.6875 L 4.90625 -70.578125 C 7.519531 -70.578125 9.492188 -71.160156 10.828125 -72.328125 C 12.171875 -73.492188 12.84375 -74.617188 12.84375 -75.703125 L 13.734375 -75.703125 L 13.734375 -5.640625 C 13.734375 -4.304688 13.953125 -3.289062 14.390625 -2.59375 C 14.835938 -1.90625 15.359375 -1.445312 15.953125 -1.21875 C 16.546875 -1 17.066406 -0.890625 17.515625 -0.890625 L 20.9375 -0.890625 L 20.9375 0 L 1.484375 0 Z M 1.484375 -0.890625 "/></g></g></g></g></g><g transform="matrix(1, 0, 0, 1, 9, 75)"><g clip-path="url(#9b07108831)"><g fill="#f1f1f1" fill-opacity="1"><g transform="translate(0.794656, 76.074589)"><g><path d="M 37.3125 1.484375 C 33.269531 1.484375 29.300781 1.035156 25.40625 0.140625 C 21.519531 -0.742188 18 -2.097656 14.84375 -3.921875 C 11.695312 -5.742188 9.175781 -8.09375 7.28125 -10.96875 C 5.382812 -13.851562 4.4375 -17.289062 4.4375 -21.28125 C 4.4375 -24.925781 5.148438 -28.03125 6.578125 -30.59375 C 8.003906 -33.15625 10.054688 -35.382812 12.734375 -37.28125 C 15.421875 -39.175781 18.613281 -40.910156 22.3125 -42.484375 C 19.945312 -45.148438 18.050781 -47.785156 16.625 -50.390625 C 15.195312 -53.003906 14.484375 -55.59375 14.484375 -58.15625 C 14.484375 -61.601562 15.40625 -64.554688 17.25 -67.015625 C 19.101562 -69.484375 21.578125 -71.378906 24.671875 -72.703125 C 27.773438 -74.035156 31.148438 -74.703125 34.796875 -74.703125 C 38.003906 -74.703125 40.773438 -74.257812 43.109375 -73.375 C 45.453125 -72.488281 47.382812 -71.34375 48.90625 -69.9375 C 50.4375 -68.53125 51.582031 -67 52.34375 -65.34375 C 53.113281 -63.695312 53.5 -62.140625 53.5 -60.671875 C 53.5 -58.003906 52.941406 -55.757812 51.828125 -53.9375 C 50.722656 -52.113281 49.304688 -50.609375 47.578125 -49.421875 C 45.859375 -48.242188 44.023438 -47.3125 42.078125 -46.625 C 40.128906 -45.9375 38.289062 -45.394531 36.5625 -45 C 34.84375 -44.601562 33.46875 -44.28125 32.4375 -44.03125 C 31.800781 -43.988281 31.148438 -43.90625 30.484375 -43.78125 C 29.816406 -43.65625 29.140625 -43.492188 28.453125 -43.296875 C 30.316406 -41.472656 32.515625 -39.414062 35.046875 -37.125 C 37.585938 -34.832031 40.4375 -32.3125 43.59375 -29.5625 L 66.203125 -56.59375 L 66.875 -56.078125 L 51.65625 -37.828125 C 52.488281 -38.222656 53.429688 -38.554688 54.484375 -38.828125 C 55.546875 -39.097656 56.84375 -39.234375 58.375 -39.234375 C 61.082031 -39.234375 63.582031 -38.628906 65.875 -37.421875 C 68.164062 -36.210938 70.007812 -34.5 71.40625 -32.28125 C 72.8125 -30.070312 73.515625 -27.414062 73.515625 -24.3125 C 73.515625 -21.550781 72.875 -18.914062 71.59375 -16.40625 C 70.3125 -13.894531 68.585938 -11.554688 66.421875 -9.390625 C 68.890625 -7.265625 71.070312 -5.390625 72.96875 -3.765625 C 74.863281 -2.140625 76.398438 -0.984375 77.578125 -0.296875 C 78.566406 0.296875 79.550781 0.59375 80.53125 0.59375 C 81.519531 0.59375 82.484375 0.59375 83.421875 0.59375 L 83.421875 1.484375 C 80.609375 1.484375 78.378906 1.484375 76.734375 1.484375 C 75.085938 1.484375 73.707031 1.320312 72.59375 1 C 71.488281 0.675781 70.320312 0.0234375 69.09375 -0.953125 C 68.195312 -1.648438 67.21875 -2.453125 66.15625 -3.359375 C 65.101562 -4.273438 63.9375 -5.273438 62.65625 -6.359375 C 59.3125 -3.941406 55.429688 -2.03125 51.015625 -0.625 C 46.609375 0.78125 42.039062 1.484375 37.3125 1.484375 Z M 9.90625 -22.46875 C 9.90625 -19.21875 10.679688 -16.210938 12.234375 -13.453125 C 13.785156 -10.691406 15.878906 -8.273438 18.515625 -6.203125 C 21.148438 -4.140625 24.128906 -2.539062 27.453125 -1.40625 C 30.773438 -0.269531 34.1875 0.296875 37.6875 0.296875 C 42.21875 0.296875 46.585938 -0.351562 50.796875 -1.65625 C 55.015625 -2.96875 58.75 -4.753906 62 -7.015625 C 59.382812 -9.285156 56.5 -11.796875 53.34375 -14.546875 C 50.195312 -17.304688 46.945312 -20.117188 43.59375 -22.984375 C 39.945312 -26.128906 36.335938 -29.226562 32.765625 -32.28125 C 29.191406 -35.34375 26.03125 -38.375 23.28125 -41.375 C 20.863281 -40.289062 18.644531 -38.847656 16.625 -37.046875 C 14.601562 -35.253906 12.976562 -33.140625 11.75 -30.703125 C 10.519531 -28.265625 9.90625 -25.519531 9.90625 -22.46875 Z M 17.734375 -60.8125 C 17.679688 -59.238281 17.960938 -57.640625 18.578125 -56.015625 C 19.191406 -54.390625 20.25 -52.601562 21.75 -50.65625 C 23.257812 -48.707031 25.296875 -46.453125 27.859375 -43.890625 C 29.085938 -44.085938 30.578125 -44.382812 32.328125 -44.78125 C 34.078125 -45.175781 35.863281 -45.753906 37.6875 -46.515625 C 39.507812 -47.273438 41.207031 -48.257812 42.78125 -49.46875 C 44.351562 -50.675781 45.632812 -52.140625 46.625 -53.859375 C 47.613281 -55.585938 48.109375 -57.632812 48.109375 -60 C 48.109375 -61.375 47.875 -62.835938 47.40625 -64.390625 C 46.9375 -65.941406 46.179688 -67.421875 45.140625 -68.828125 C 44.109375 -70.234375 42.726562 -71.378906 41 -72.265625 C 39.28125 -73.148438 37.164062 -73.59375 34.65625 -73.59375 C 30.8125 -73.59375 27.644531 -72.960938 25.15625 -71.703125 C 22.664062 -70.453125 20.828125 -68.851562 19.640625 -66.90625 C 18.460938 -64.957031 17.828125 -62.925781 17.734375 -60.8125 Z M 44.265625 -28.96875 C 44.898438 -28.425781 45.5625 -27.859375 46.25 -27.265625 C 46.945312 -26.671875 47.640625 -26.054688 48.328125 -25.421875 C 51.523438 -22.710938 54.585938 -20.023438 57.515625 -17.359375 C 60.453125 -14.703125 63.203125 -12.265625 65.765625 -10.046875 C 67.878906 -12.066406 69.539062 -14.257812 70.75 -16.625 C 71.957031 -18.988281 72.5625 -21.453125 72.5625 -24.015625 C 72.5625 -27.316406 71.832031 -30.023438 70.375 -32.140625 C 68.925781 -34.253906 67.117188 -35.816406 64.953125 -36.828125 C 62.785156 -37.835938 60.566406 -38.34375 58.296875 -38.34375 C 56.078125 -38.34375 54.21875 -38.035156 52.71875 -37.421875 C 51.21875 -36.804688 50.050781 -36.007812 49.21875 -35.03125 Z M 44.265625 -28.96875 "/></g></g></g></g></g></svg>